# xmcd
#
# Track frame offsets:
#	150
#	15192
#	31405
#	45780
#	60136
#	76420
#	92329
#	108341
#	124344
#	139294
#	153769
#	165983
#	179747
#	194002
#	203738
#	219025
#	234220
#	249505
#	264049
#	278256
#
# Disc length: 3895 seconds
#
# Revision: 0
# Processed by: cddbd v1.5.2PL0 Copyright (c) Steve Scherf et al.
# Submitted via: EasyCDDAExtractor 16.0.6.1
#
DISCID=e90f3514
DTITLE=Συλλογικός δίσκος - Τραγούδια 45 στροφές-Καζαντζίδης Στέλιος 3
DYEAR=2000
DGENRE=Λαϊκή
TTITLE0=Καζαντζίδης Στέλιος-Μαρινέλλα - Η γραβάτα [1957, Μπ. Μπακάλης-Γ. Νεοφώ
TTITLE0=της]
TTITLE1=Καζαντζίδης Στέλιος-Μαρινέλλα - Ξημέρωσε στις λαγκαδιές [1962, Κ. Παπα
TTITLE1=δόπουλος/Λ. Καρνέζης-Π.Κοκκινόπουλος]
TTITLE2=Καζαντζίδης Στέλιος - Χουσάρα [1961, Σ. Καζαντζίδης]
TTITLE3=Καζαντζίδης Στέλιος - Συγχώρεσέ με [1961, Σ. Καζαντζίδης]
TTITLE4=Καζαντζίδης Στέλιος-Μαρινέλλα - Μέσα στο έρημο σπιτάκι [1961, Σ. Καζαν
TTITLE4=τζίδης]
TTITLE5=Καζαντζίδης Στέλιος - Τύχη καταδικασμένη [1961, Σ. Καζαντζίδης-Χ. Κολο
TTITLE5=κοτρώνης]
TTITLE6=Καζαντζίδης Στέλιος-Μαρινέλλα - Με ιδρώτα και με αίμα [1962, Σ. Καζαντ
TTITLE6=ζίδης]
TTITLE7=Καζαντζίδης Στέλιος-Μαρινέλλα - Φεύγει το καράβι [1961, Βασ. Καραπατάκ
TTITLE7=ης-Χ. Κολοκοτρώνης]
TTITLE8=Καζαντζίδης Στέλιος-Μαρινέλλα - Ο ξενιτεμένος πατέρας [1960, Μπάμπης Μ
TTITLE8=πακάλης]
TTITLE9=Καζαντζίδης Στέλιος - Η Κύπρος είναι ελληνική [1965, Μ. Μπακάλης-Κ. Βί
TTITLE9=ρβος]
TTITLE10=Καζαντζίδης Στέλιος - Τιμημένοι γεωργοί [1965, Σ. Καζαντζίδης-Στέφ. Β
TTITLE10=αρτάνης]
TTITLE11=Καζαντζίδης Στέλιος-Μαρινέλλα - Δεν φεύγω από τον τόπο μου [1965, Δημ
TTITLE11=Γκούτης]
TTITLE12=Καζαντζίδης Στέλιος - Αφού θα φύγεις αύριο [1964, Θ. Δερβενιώτης-Κ. Β
TTITLE12=ίρβος]
TTITLE13=Καζαντζίδης Στέλιος-Μαρινέλλα - Η μοίρα μου κι εγώ [1964, Δημ. Γκούτη
TTITLE13=ς]
TTITLE14=Καζαντζίδης Στέλιος - Η μάννα του μετανάστη [1965, Χ. Κολοκοτρώνης]
TTITLE15=Καζαντζίδης Στέλιος - Θα φύγω μάννα δεν μπορώ [1957, Στέλιος Χρυσίνης
TTITLE15=Κ. Ζήτης]
TTITLE16=Καζαντζίδης Στέλιος - Μέσα στα εργοστάσια [1966, Στέφ. Βαρτάνης]
TTITLE17=Καζαντζίδης Στέλιος - Θα φύγω πριν να μού το πεις [1965, Χ. Κολοκοτρώ
TTITLE17=νης]
TTITLE18=Καζαντζίδης Στέλιος - Τώρα που είσαι νέα [1961, Μανώλης Χιώτης]
TTITLE19=Καζαντζίδης Στέλιος-Μαρινέλλα - Πονεμένο γράμμα [1962, Σ. Καζαντζίδης
TTITLE19=]
EXTD=
EXTT0=
EXTT1=
EXTT2=
EXTT3=
EXTT4=
EXTT5=
EXTT6=
EXTT7=
EXTT8=
EXTT9=
EXTT10=
EXTT11=
EXTT12=
EXTT13=
EXTT14=
EXTT15=
EXTT16=
EXTT17=
EXTT18=
EXTT19=
PLAYORDER=
